<svg width="200" height="40" viewBox="0 0 200 40" fill="none" xmlns="http://www.w3.org/2000/svg" aria-label="PDF Tools">
  <!-- Document Icon -->
  <g>
    <!-- Main Document Shape -->
    <path d="M8 4C8 2.89543 8.89543 2 10 2H20L28 10V34C28 35.1046 27.1046 36 26 36H10C8.89543 36 8 35.1046 8 34V4Z" fill="#E57373"/>
    
    <!-- Folded Corner -->
    <path d="M20 2V8C20 9.10457 20.8954 10 22 10H28L20 2Z" fill="#E57373" opacity="0.6"/>
    
    <!-- PDF Text inside document -->
    <text x="18" y="24" font-family="system-ui, -apple-system, sans-serif" font-size="9" font-weight="700" fill="#FFFFFF" text-anchor="middle">PDF</text>
    
    <!-- Transformation Arrow -->
    <circle cx="32" cy="20" r="6" fill="#F4E67D"/>
    <path d="M30 20H34M34 20L32 18M34 20L32 22" stroke="#3C3C3C" stroke-width="1.5" stroke-linecap="round" stroke-linejoin="round"/>
  </g>

  <!-- Text "PDF Tools" -->
  <g fill="#EBE9E9">
    <!-- PDF -->
    <text x="46" y="26" font-family="system-ui, -apple-system, sans-serif" font-size="24" font-weight="700" fill="#EBE9E9">PDF</text>
    
    <!-- Tools -->
    <text x="94" y="26" font-family="system-ui, -apple-system, sans-serif" font-size="24" font-weight="600" fill="#EBE9E9" opacity="0.8">Tools</text>
  </g>
</svg>

